<?xml version="1.0" encoding="UTF-8"?>
<svg width="20px" height="20px" viewBox="0 0 20 20" version="1.1" xmlns="http://www.w3.org/2000/svg" xmlns:xlink="http://www.w3.org/1999/xlink">
    <!-- Generator: Sketch 52.6 (67491) - http://www.bohemiancoding.com/sketch -->
    <title>block-icon</title>
    <desc>Created with Sketch.</desc>
    <g id="block-icon" stroke="none" stroke-width="1" fill="none" fill-rule="evenodd">
        <path d="M11.42139,6.04188624 C10.6586713,5.50780765 10.133664,4.6574608 10.0367061,3.6811838 C10.0244747,3.68112354 10.0122393,3.68109339 10,3.68109339 C5.96508159,3.68109339 2.68109339,6.96508159 2.68109339,11 C2.68109339,15.0349184 5.96508159,18.3189066 10,18.3189066 C14.0349184,18.3189066 17.3189066,15.0349184 17.3189066,11 C17.3189066,10.1439155 17.1712999,9.30903169 16.8874666,8.52267531 C16.6544089,8.57466322 16.41438,8.60136674 16.1708428,8.60136674 C15.0669519,8.60136674 14.0778565,8.05252533 13.4811595,7.19978697 C13.5533331,7.39910445 13.5927891,7.61464635 13.5927891,7.83948984 C13.5927891,8.8537353 12.7896681,9.67897964 11.8022533,9.67897964 C10.8149999,9.67897964 10.0117176,8.8537353 10.0117176,7.83948984 C10.0117176,6.95947162 10.6164529,6.2217392 11.42139,6.04188624 Z M13.1502209,6.62986784 C13.1586634,6.63978511 13.167004,6.64979605 13.1752412,6.65989893 C13.1708566,6.6500884 13.1665183,6.64025137 13.1622267,6.63038812 C13.1582229,6.63022187 13.154221,6.63004844 13.1502209,6.62986784 Z M11.8022533,7.28640055 C11.5054162,7.28640055 11.2638834,7.53437139 11.2638834,7.83948984 C11.2638834,8.14444262 11.5054162,8.39257909 11.8022533,8.39257909 C12.0990905,8.39257909 12.3406234,8.14444262 12.3406234,7.83948984 C12.3406234,7.53453702 12.0990905,7.28640055 11.8022533,7.28640055 Z M11.8022533,13.3210204 C12.7896681,13.3210204 13.5929503,14.1460991 13.5927891,15.1605102 C13.5927891,16.1747557 12.7896681,17 11.8022533,17 C10.8149999,17 10.0117176,16.1749213 10.0117176,15.1605102 C10.0117176,14.1462647 10.8149999,13.3210204 11.8022533,13.3210204 Z M11.8022533,15.7135995 C12.0990905,15.7135995 12.3406234,15.465463 12.3406234,15.1605102 C12.3406234,14.8555574 12.0990905,14.6074209 11.8022533,14.6074209 C11.5054162,14.6074209 11.2638834,14.8555574 11.2638834,15.1605102 C11.2638834,15.465463 11.5054162,15.7135995 11.8022533,15.7135995 Z M7.58107147,11.2991552 C7.58107147,12.3135663 6.77778923,13.138645 5.79053571,13.138645 C4.80312097,13.138645 4,12.3135663 4,11.2991552 C4,10.2849097 4.80312097,9.45966541 5.79053571,9.45966541 C6.77778923,9.45966541 7.58107147,10.2849097 7.58107147,11.2991552 Z M5.79053571,11.8522445 C6.08737287,11.8522445 6.32890572,11.604108 6.32890572,11.2991552 C6.32890572,10.9942024 6.08737287,10.7460659 5.79053571,10.7460659 C5.4936986,10.7460659 5.25216571,10.9942024 5.25216571,11.2991552 C5.25216571,11.604108 5.4936986,11.8522445 5.79053571,11.8522445 Z M14.7482127,10.115289 C15.0253789,10.3276462 15.0824567,10.7306609 14.8757511,11.015405 L14.3905893,11.6837834 C14.2677267,11.8530727 14.0790796,11.9425211 13.8881751,11.9425211 C13.7580569,11.9425211 13.6268101,11.9009442 13.514428,11.8148087 C13.2372618,11.6024516 13.1801839,11.1994368 13.3868896,10.9146927 L13.8720514,10.2463144 C14.0787571,9.96157031 14.4708852,9.90293194 14.7482127,10.115289 Z M10.425774,12.095246 C10.3495089,12.095246 10.2721152,12.0808349 10.1968176,12.0503562 L9.44158397,11.7450721 C9.1199164,11.6150406 8.96158175,11.2416763 9.08831393,10.9110485 C9.21488492,10.5805864 9.57831286,10.4180885 9.9001417,10.5479543 L10.6552141,10.8532384 C10.9770429,10.9834355 11.1352163,11.3567997 11.0086454,11.6874275 C10.9115808,11.9405334 10.67553,12.095246 10.425774,12.095246 Z M7.70957726,6.62630444 L8.18522608,7.30180554 C8.38806212,7.58953122 8.32517971,7.9915521 8.04511123,8.19993377 C7.93418025,8.28242505 7.80583568,8.32201426 7.67861978,8.32201426 C7.48465178,8.32201426 7.29326358,8.22974986 7.17088481,8.05598807 L6.69507472,7.38048702 C6.49239995,7.09276129 6.55512109,6.69057482 6.8353508,6.48235879 C7.11541931,6.27397716 7.50690245,6.33857876 7.70957726,6.62630444 Z M7.60461203,14.8522445 C7.95046516,14.8529071 8.23021119,15.141461 8.22956624,15.4967699 C8.22876007,15.8514163 7.94869159,16.138645 7.60348337,16.138645 L7.60219347,16.138645 L6.79068819,16.1369886 C6.44483506,16.136326 6.16508903,15.8477721 6.16573398,15.4924632 C6.16654015,15.1378168 6.44660863,14.850588 6.79181685,14.850588 C6.79230053,14.850588 6.79262303,14.850588 6.79310675,14.850588 L7.60461203,14.8522445 Z M18.1063206,7.09145887 C18.6916469,8.30099042 19,9.6300203 19,11 C19,15.9633607 14.9633607,20 10,20 C5.03663934,20 1,15.9633607 1,11 C1,6.03663934 5.03663934,2 10,2 C10.3348524,2 10.6676847,2.01840951 10.9974501,2.05495498 L11.9019024,2.15518879 L11.7303381,3.04885907 C11.7112875,3.14809269 11.7015945,3.24973416 11.7015945,3.35307517 C11.7015945,4.23622755 12.417531,4.95216401 13.3006834,4.95216401 C13.4051672,4.95216401 13.5079137,4.94225547 13.6081893,4.92278528 L14.447607,4.75979836 L14.5961673,5.60188892 C14.7297583,6.35912812 15.392036,6.92027335 16.1708428,6.92027335 C16.445761,6.92027335 16.7087896,6.85151764 16.9429575,6.72202868 L17.7196895,6.2925155 L18.1063206,7.09145887 Z M17.5581479,3.73760027 C17.8951476,3.678325 18.2158851,3.90579343 18.2746595,4.24566493 C18.3331661,4.5849308 18.1083772,4.90810331 17.7721164,4.96790042 L17.77086,4.96812385 L16.9801111,5.10710913 C16.6431113,5.16638441 16.3223738,4.93891597 16.2635995,4.59904448 C16.2050929,4.2597786 16.4298817,3.93660609 16.7661425,3.87680899 C16.7666137,3.87672521 16.7669278,3.87666934 16.767399,3.87658555 L17.5581479,3.73760027 Z M14.2943572,0.410025653 C14.4119569,0.0860506774 14.7676546,-0.0803488547 15.0888922,0.0382530362 C15.4094758,0.15678603 15.5745922,0.514704016 15.45781,0.838294499 L15.4573737,0.839503618 L15.181347,1.59964044 C15.0637472,1.92361542 14.7080496,2.09001495 14.386812,1.97141306 C14.0662284,1.85288007 13.901112,1.49496208 14.0178942,1.1713716 C14.0180578,1.17091821 14.0181669,1.17061591 14.0183305,1.17016248 L14.2943572,0.410025653 Z" id="Combined-Shape" fill="#555D66" fill-rule="nonzero"></path>
    </g>
</svg>