<?xml version="1.0" encoding="UTF-8"?>
<svg width="18px" height="18px" viewBox="0 0 18 18" version="1.1" xmlns="http://www.w3.org/2000/svg" xmlns:xlink="http://www.w3.org/1999/xlink">
    <!-- Generator: Sketch 52.6 (67491) - http://www.bohemiancoding.com/sketch -->
    <title>menu-icon</title>
    <desc>Created with Sketch.</desc>
    <g id="menu-icon" stroke="none" stroke-width="1" fill="none" fill-rule="evenodd">
        <path d="M10.1620551,5.31360555 C9.53912088,4.82833709 9.11413988,4.09136915 9.03247078,3.25121114 C9.02165066,3.25115668 9.01082705,3.25112944 9,3.25112944 C5.43064909,3.25112944 2.52558262,6.21916633 2.52558262,9.86588671 C2.52558262,13.5126071 5.43064909,16.480644 9,16.480644 C12.5693509,16.480644 15.4744174,13.5126071 15.4744174,9.86588671 C15.4744174,9.0921658 15.3438422,8.33760584 15.092759,7.62690453 C14.8865925,7.6738907 14.6742593,7.69802509 14.4588225,7.69802509 C13.6062612,7.69802509 12.831105,7.31992696 12.2967769,6.71105362 C12.2988981,6.74514344 12.299975,6.77951884 12.299975,6.81414669 C12.299975,7.70048592 11.5942442,8.42165893 10.726568,8.42165893 C9.85903346,8.42165893 9.15316099,7.70048592 9.15316099,6.81414669 C9.15316099,6.13096653 9.57253041,5.54591412 10.1620551,5.31360555 Z M10.726568,6.33080734 C10.4657267,6.33080734 10.2534833,6.54750664 10.2534833,6.81414669 C10.2534833,7.08064196 10.4657267,7.29748601 10.726568,7.29748601 C10.9874092,7.29748601 11.1996527,7.08064196 11.1996527,6.81414669 C11.1996527,6.54765139 10.9874092,6.33080734 10.726568,6.33080734 Z M10.726568,11.6044029 C11.5942442,11.6044029 12.3001166,12.3254311 12.299975,13.2119151 C12.299975,14.0982544 11.5942442,14.8194274 10.726568,14.8194274 C9.85903346,14.8194274 9.15316099,14.0983992 9.15316099,13.2119151 C9.15316099,12.3255759 9.85903346,11.6044029 10.726568,11.6044029 Z M10.726568,13.6952545 C10.9874092,13.6952545 11.1996527,13.4784104 11.1996527,13.2119151 C11.1996527,12.9454198 10.9874092,12.7285758 10.726568,12.7285758 C10.4657267,12.7285758 10.2534833,12.9454198 10.2534833,13.2119151 C10.2534833,13.4784104 10.4657267,13.6952545 10.726568,13.6952545 Z M7.01726637,9.83751459 C7.01726637,10.7239986 6.3113939,11.4450268 5.44385937,11.4450268 C4.57618316,11.4450268 3.8704524,10.7239986 3.8704524,9.83751459 C3.8704524,8.95117532 4.57618316,8.23000236 5.44385937,8.23000236 C6.3113939,8.23000236 7.01726637,8.95117532 7.01726637,9.83751459 Z M5.44385937,10.3208539 C5.70470066,10.3208539 5.9169441,10.1040099 5.9169441,9.83751459 C5.9169441,9.57101933 5.70470066,9.35417524 5.44385937,9.35417524 C5.18301811,9.35417524 4.97077463,9.57101933 4.97077463,9.83751459 C4.97077463,10.1040099 5.18301811,10.3208539 5.44385937,10.3208539 Z M13.3152865,8.80294547 C13.5588422,8.98852232 13.6089985,9.34071297 13.4273589,9.58954806 L13.0010301,10.1736374 C12.8930665,10.3215777 12.7272956,10.3997458 12.5595411,10.3997458 C12.4452016,10.3997458 12.3298704,10.3634121 12.2311162,10.2881391 C11.9875605,10.1025623 11.9374042,9.75037163 12.1190438,9.50153658 L12.5453726,8.91744725 C12.7270122,8.66861216 13.071589,8.61736866 13.3152865,8.80294547 Z M9.51700693,10.5332106 C9.44999014,10.5332106 9.38198156,10.5206168 9.31581486,10.4939818 L8.65216441,10.227197 C8.36950375,10.1135638 8.2303695,9.78728435 8.34173354,9.49835194 C8.45295595,9.20956427 8.77231291,9.06755892 9.05511528,9.1810474 L9.71862406,9.4478322 C10.0014264,9.56161018 10.140419,9.88788958 10.0291966,10.176822 C9.94390252,10.3980087 9.73647633,10.5332106 9.51700693,10.5332106 Z M7.13018895,5.75395578 L7.54815837,6.34426961 C7.72639755,6.59571029 7.67114056,6.94703242 7.4250345,7.12913513 C7.32755552,7.20122346 7.21477462,7.23582009 7.10298551,7.23582009 C6.93253899,7.23582009 6.76435941,7.15519113 6.65682086,7.00334239 L6.23870974,6.41302859 C6.06061226,6.16158788 6.11572754,5.81012103 6.36197528,5.62816307 C6.60808138,5.44606039 6.95209144,5.50251511 7.13018895,5.75395578 Z M7.0379523,12.9425248 C7.34186565,12.9431037 7.58768837,13.1952682 7.58712163,13.5057692 C7.58641321,13.8156912 7.34030715,14.0666976 7.03696049,14.0666976 L7.03582702,14.0666976 L6.32272867,14.0652501 C6.01881531,14.0646711 5.7729926,13.8125066 5.77355934,13.5020056 C5.77426775,13.1920836 6.02037381,12.9410772 6.32372047,12.9410772 C6.32414549,12.9410772 6.32442888,12.9410772 6.32485394,12.9410772 L7.0379523,12.9425248 Z M16.1709759,6.3333849 C16.6887645,7.42654786 16.9615385,8.62771226 16.9615385,9.86588671 C16.9615385,14.3517243 13.3906652,18 9,18 C4.6093348,18 1.03846154,14.3517243 1.03846154,9.86588671 C1.03846154,5.38004917 4.6093348,1.73177343 9,1.73177343 C9.29621557,1.73177343 9.59064412,1.74841176 9.88235966,1.78144121 L10.6824521,1.87203156 L10.5306837,2.67972215 C10.5138312,2.76940853 10.5052567,2.86127112 10.5052567,2.95466973 C10.5052567,3.75285434 11.1385851,4.39991081 11.9198353,4.39991081 C12.0122633,4.39991081 12.1031544,4.39095557 12.1918598,4.3733586 L12.9344216,4.22605259 L13.0658403,4.98712593 C13.1840169,5.67151143 13.769878,6.17866907 14.4588225,6.17866907 C14.7020193,6.17866907 14.9346985,6.11652832 15.1418471,5.99949745 L15.8289561,5.61130758 L16.1709759,6.3333849 Z M15.7147494,3.36384024 C16.014144,3.3104925 16.299091,3.51521409 16.3513069,3.82109843 C16.4032849,4.12643772 16.2035798,4.41729298 15.9048416,4.47111037 L15.9037254,4.47131147 L15.2012145,4.59639822 C14.9018199,4.64974597 14.6168729,4.44502438 14.564657,4.13914003 C14.5126791,3.83380074 14.7123842,3.54294549 15.0111223,3.48912809 C15.0115409,3.48905269 15.01182,3.48900241 15.0122386,3.488927 L15.7147494,3.36384024 Z M12.8151585,0.369023088 C12.9196356,0.0774456097 13.2356417,-0.0723139692 13.521033,0.0344277326 C13.8058433,0.141107427 13.9525347,0.463233615 13.848784,0.754465049 L13.8483963,0.755553256 L13.6031709,1.4396764 C13.4986939,1.73125388 13.1826878,1.88101346 12.8972965,1.77427176 C12.6124862,1.66759206 12.4657948,1.34546587 12.5695455,1.05423444 C12.5696908,1.05382639 12.5697877,1.05355432 12.5699331,1.05314623 L12.8151585,0.369023088 Z" id="Combined-Shape" fill="#FFFFFF" fill-rule="nonzero"></path>
    </g>
</svg>